<svg width="16" height="16" viewBox="0 0 16 16" fill="none" xmlns="http://www.w3.org/2000/svg">
<path fill-rule="evenodd" clip-rule="evenodd" d="M0.408288 1.97793C0.671894 1.54062 2.12515 -0.046858 3.16075 0.00106602C3.47057 0.0275954 3.74445 0.214157 3.96697 0.431526H3.96783C4.47793 0.931305 5.94145 2.81746 6.02362 3.21454C6.22646 4.18843 5.06505 4.74982 5.42023 5.73141C6.32574 7.94704 7.88598 9.50714 10.1027 10.4117C11.0835 10.7677 11.6449 9.60726 12.6189 9.80923C13.016 9.89224 14.9032 11.3548 15.4022 11.8657V11.8657C15.6187 12.0873 15.807 12.362 15.8327 12.6718C15.8712 13.763 14.1851 15.2358 13.8565 15.424C13.0811 15.9794 12.0694 15.9692 10.8361 15.3958C7.39471 13.9641 1.89493 8.56834 0.436532 4.99714C-0.121492 3.7708 -0.15915 2.75242 0.408288 1.97793Z" stroke="white" stroke-width="1.5" stroke-linecap="round" stroke-linejoin="round"/>
<path d="M10.0547 0.20834C13.1397 0.55084 15.5755 2.98417 15.9222 6.06834" stroke="white" stroke-width="1.5" stroke-linecap="round" stroke-linejoin="round"/>
<path d="M10.0547 3.16084C11.5297 3.44834 12.6822 4.60084 12.9697 6.07584" stroke="white" stroke-width="1.5" stroke-linecap="round" stroke-linejoin="round"/>
</svg>
