<svg width="800" height="800" viewBox="0 -38 256 256" xmlns="http://www.w3.org/2000/svg" preserveAspectRatio="xMidYMid"><g><path d="M250.346231 28.0746923C247.358133 17.0320558 238.732098 8.40602109 227.689461 5.41792308 207.823743.0 127.868333.0 127.868333.0S47.9129229.164179487 28.0472049 5.58210256C17.0045684 8.57020058 8.37853373 17.1962353 5.39043571 28.2388718-.618533519 63.5374615-2.94988224 117.322662 5.5546152 151.209308c2.98809802 11.042636 11.6141327 19.668671 22.6567692 22.656769C48.0771024 179.284 128.032513 179.284 128.032513 179.284s79.95541.0 99.821128-5.417923C238.896277 170.877979 247.522312 162.251944 250.51041 151.209308 256.847738 115.861464 258.801474 62.1091 250.346231 28.0746923z" fill="#F00"/><polygon fill="#FFF" points="102.420513 128.06 168.749025 89.642 102.420513 51.224"/></g></svg>