<svg width="800" height="800" viewBox="0 0 256 256" xmlns="http://www.w3.org/2000/svg" preserveAspectRatio="xMidYMid"><g><path d="M128 0C57.307.0.0 57.307.0 128c0 70.693 57.307 128 128 128 70.693.0 128-57.307 128-128C256 57.307 198.693.0 128 0z" fill="#40B3E0"/><path d="M190.2826 73.6308l-22.862 115.267S164.2236 196.8918 155.4306 193.0548l-52.758-40.448L83.4886 143.3348l-32.294-10.872S46.2386 130.7048 45.7586 126.8678C45.2796 123.0308 51.3546 120.9528 51.3546 120.9528l128.376-50.36s10.552-4.636 10.552 3.038" fill="#FFF"/><path d="M98.6178 187.6035S97.0778 187.4595 95.1588 181.3835C93.2408 175.3085 83.4888 143.3345 83.4888 143.3345l77.537-49.24s4.477-2.718 4.31700000000001.0C165.3428 94.0945 166.1418 94.5735 163.7438 96.8115c-2.398 2.239-60.911 54.836-60.911 54.836" fill="#D2E5F1"/><path d="M122.9015 168.1154l-20.868 19.026S100.4025 188.3794 98.6175 187.6034l3.996-35.341" fill="#B5CFE4"/></g></svg>