<svg width="32" height="32" viewBox="0 0 32 32" fill="none" xmlns="http://www.w3.org/2000/svg">
<g clip-path="url(#clip0_166_686)">
<path d="M28.7253 8.6627C29.3346 11.0387 29.3346 15.9987 29.3346 15.9987C29.3346 15.9987 29.3346 20.9587 28.7253 23.3347C28.3866 24.648 27.396 25.6814 26.1413 26.0307C23.8626 26.6654 16.0013 26.6654 16.0013 26.6654C16.0013 26.6654 8.14397 26.6654 5.8613 26.0307C4.6013 25.676 3.61197 24.644 3.2773 23.3347C2.66797 20.9587 2.66797 15.9987 2.66797 15.9987C2.66797 15.9987 2.66797 11.0387 3.2773 8.6627C3.61597 7.34936 4.60664 6.31603 5.8613 5.9667C8.14397 5.33203 16.0013 5.33203 16.0013 5.33203C16.0013 5.33203 23.8626 5.33203 26.1413 5.9667C27.4013 6.32136 28.3906 7.35336 28.7253 8.6627ZM13.3346 20.6654L21.3346 15.9987L13.3346 11.332V20.6654Z" fill="#0F172A"/>
</g>
<defs>
<clipPath id="clip0_166_686">
<rect width="32" height="32" fill="white"/>
</clipPath>
</defs>
</svg>
