<svg width="32" height="32" viewBox="0 0 32 32" fill="none" xmlns="http://www.w3.org/2000/svg">
<g clip-path="url(#clip0_166_689)">
<path d="M16.0013 2.66797C8.6373 2.66797 2.66797 8.6373 2.66797 16.0013C2.66797 22.656 7.54397 28.172 13.9186 29.1733V19.8546H10.532V16.0013H13.9186V13.064C13.9186 9.72264 15.908 7.8773 18.9546 7.8773C20.4133 7.8773 21.9386 8.1373 21.9386 8.1373V11.4173H20.2586C18.6013 11.4173 18.0853 12.4453 18.0853 13.5V16.0013H21.7826L21.192 19.8546H18.0853V29.1733C24.4586 28.1733 29.3346 22.6546 29.3346 16.0013C29.3346 8.6373 23.3653 2.66797 16.0013 2.66797Z" fill="#0F172A"/>
</g>
<defs>
<clipPath id="clip0_166_689">
<rect width="32" height="32" fill="white"/>
</clipPath>
</defs>
</svg>
