<svg width="34" height="34" viewBox="0 0 34 34" fill="none" xmlns="http://www.w3.org/2000/svg">
<path d="M16.6663 23.3337C7.06629 23.3337 5.3663 13.767 5.0663 6.17704C4.9813 4.06704 4.93963 3.01038 5.73296 2.03538C6.52463 1.05871 7.47296 0.89871 9.3713 0.57871C11.7827 0.183704 14.2228 -0.00974224 16.6663 0.000377325C19.6396 0.000377325 22.088 0.262044 23.9613 0.57871C25.8596 0.89871 26.808 1.05871 27.6013 2.03538C28.3946 3.01204 28.3513 4.06704 28.268 6.17704C27.968 13.767 26.268 23.3337 16.668 23.3337H16.6663Z" stroke="white" stroke-width="1.5"/>
<path d="M16.667 23.3337V28.3337" stroke="white" stroke-width="1.5" stroke-linecap="round"/>
<path d="M22.4997 33.3337H10.833L11.3997 30.507C11.4752 30.1293 11.6791 29.7894 11.9769 29.5451C12.2747 29.3008 12.6479 29.1672 13.033 29.167H20.2997C20.6848 29.1672 21.058 29.3008 21.3558 29.5451C21.6535 29.7894 21.8575 30.1293 21.933 30.507L22.4997 33.3337Z" stroke="white" stroke-width="1.5" stroke-linecap="round" stroke-linejoin="round"/>
<path d="M28.3333 5.00049L29.915 5.52715C31.565 6.07715 32.39 6.35215 32.8617 7.00715C33.3333 7.66215 33.3333 8.53382 33.3333 10.2705V10.3922C33.3333 11.8255 33.3333 12.5438 32.9883 13.1305C32.6433 13.7172 32.015 14.0655 30.7617 14.7638L25.8333 17.5005M5 5.00049L3.41833 5.52715C1.76833 6.07715 0.943333 6.35215 0.471667 7.00715C0 7.66215 0 8.53382 0 10.2705V10.3922C0 11.8255 2.48353e-08 12.5438 0.345 13.1305C0.69 13.7172 1.31833 14.0655 2.57167 14.7638L7.5 17.5005M15.2433 6.70549C15.8767 5.56715 16.1933 5.00049 16.6667 5.00049C17.14 5.00049 17.4567 5.56715 18.09 6.70549L18.2533 6.99882C18.4333 7.32215 18.5233 7.48215 18.6633 7.58882C18.805 7.69549 18.98 7.73549 19.33 7.81382L19.6467 7.88715C20.8767 8.16549 21.4917 8.30382 21.6383 8.77382C21.785 9.24382 21.365 9.73549 20.5267 10.7155L20.31 10.9688C20.0717 11.2472 19.9517 11.3855 19.8983 11.5588C19.845 11.7322 19.8633 11.9172 19.8983 12.2888L19.9317 12.6272C20.0583 13.9355 20.1217 14.5905 19.74 14.8805C19.3567 15.1705 18.78 14.9055 17.6283 14.3755L17.3317 14.2388C17.0033 14.0888 16.84 14.0138 16.6667 14.0138C16.4933 14.0138 16.33 14.0888 16.0017 14.2388L15.705 14.3755C14.5533 14.9072 13.9767 15.1705 13.5933 14.8805C13.21 14.5905 13.275 13.9355 13.4017 12.6272L13.435 12.2888C13.47 11.9172 13.4883 11.7322 13.435 11.5588C13.3817 11.3855 13.2617 11.2472 13.0233 10.9688L12.8067 10.7155C11.9683 9.73549 11.5483 9.24549 11.695 8.77382C11.8417 8.30382 12.4567 8.16549 13.6867 7.88715L14.0033 7.81382C14.3533 7.73549 14.5283 7.69715 14.67 7.58882C14.81 7.48215 14.9 7.32215 15.08 6.99882L15.2433 6.70549Z" stroke="white" stroke-width="1.5"/>
<path d="M26.667 33.3337H6.66699" stroke="white" stroke-width="1.5" stroke-linecap="round"/>
</svg>
